<svg width="14" height="14" viewBox="0 0 14 14" fill="none" xmlns="http://www.w3.org/2000/svg">
<path d="M8.16658 5.62921V4.92921C8.48742 4.7931 8.81554 4.69101 9.15096 4.62296C9.48638 4.5549 9.83881 4.52087 10.2083 4.52087C10.461 4.52087 10.7089 4.54032 10.952 4.57921C11.1951 4.6181 11.4333 4.66671 11.6666 4.72504V5.36671C11.4333 5.27921 11.1975 5.21358 10.9593 5.16983C10.7211 5.12608 10.4708 5.10421 10.2083 5.10421C9.83881 5.10421 9.48395 5.15039 9.14367 5.24275C8.80339 5.33511 8.4777 5.46393 8.16658 5.62921ZM8.16658 8.83754V8.12296C8.48742 7.98685 8.81554 7.88719 9.15096 7.824C9.48638 7.7608 9.83881 7.72921 10.2083 7.72921C10.461 7.72921 10.7089 7.74865 10.952 7.78754C11.1951 7.82643 11.4333 7.87504 11.6666 7.93337V8.57504C11.4333 8.48754 11.1975 8.42192 10.9593 8.37817C10.7211 8.33442 10.4708 8.31254 10.2083 8.31254C9.83881 8.31254 9.48395 8.35629 9.14367 8.44379C8.80339 8.53129 8.4777 8.66254 8.16658 8.83754ZM8.16658 7.23337V6.53337C8.48742 6.39726 8.81554 6.29518 9.15096 6.22712C9.48638 6.15907 9.83881 6.12504 10.2083 6.12504C10.461 6.12504 10.7089 6.14449 10.952 6.18337C11.1951 6.22226 11.4333 6.27087 11.6666 6.32921V6.97087C11.4333 6.88337 11.1975 6.81775 10.9593 6.774C10.7211 6.73025 10.4708 6.70837 10.2083 6.70837C9.83881 6.70837 9.48395 6.75455 9.14367 6.84692C8.80339 6.93928 8.4777 7.0681 8.16658 7.23337ZM3.61659 9.62504C4.14159 9.62504 4.64957 9.6858 5.14054 9.80733C5.63152 9.92886 6.1152 10.1112 6.59159 10.3542V4.12712C6.15409 3.83546 5.68013 3.60942 5.16971 3.449C4.65929 3.28858 4.14159 3.20837 3.61659 3.20837C3.24714 3.20837 2.88499 3.25455 2.53013 3.34692C2.17527 3.43928 1.81797 3.55351 1.45825 3.68962V10.0188C1.75964 9.88268 2.10235 9.78303 2.48638 9.71983C2.8704 9.65664 3.24714 9.62504 3.61659 9.62504ZM7.46659 10.3542C7.9527 10.1112 8.42908 9.92886 8.89575 9.80733C9.36242 9.6858 9.85825 9.62504 10.3833 9.62504C10.7527 9.62504 11.1343 9.65421 11.528 9.71254C11.9218 9.77087 12.2596 9.84865 12.5416 9.94587V3.68962C12.211 3.52435 11.861 3.40282 11.4916 3.32504C11.1221 3.24726 10.7527 3.20837 10.3833 3.20837C9.85825 3.20837 9.35027 3.28858 8.85929 3.449C8.36832 3.60942 7.90409 3.83546 7.46659 4.12712V10.3542ZM7.02909 11.6667C6.53325 11.2973 5.99367 11.0129 5.41034 10.8136C4.827 10.6143 4.22908 10.5146 3.61659 10.5146C3.25686 10.5146 2.90686 10.5584 2.56659 10.6459C2.22631 10.7334 1.88603 10.8403 1.54575 10.9667C1.32214 11.0737 1.10582 11.0591 0.896794 10.923C0.687766 10.7868 0.583252 10.5924 0.583252 10.3396V3.58754C0.583252 3.44171 0.61728 3.30803 0.685335 3.1865C0.753391 3.06497 0.855474 2.97018 0.991585 2.90212C1.39992 2.70768 1.82527 2.56428 2.26763 2.47192C2.70999 2.37955 3.15964 2.33337 3.61659 2.33337C4.22908 2.33337 4.82457 2.41601 5.40304 2.58129C5.98152 2.74657 6.52353 2.99935 7.02909 3.33962C7.52492 2.99935 8.05721 2.74657 8.62596 2.58129C9.19471 2.41601 9.78047 2.33337 10.3833 2.33337C10.8402 2.33337 11.2874 2.37955 11.7249 2.47192C12.1624 2.56428 12.5853 2.70768 12.9937 2.90212C13.1298 2.97018 13.2343 3.06497 13.3072 3.1865C13.3801 3.30803 13.4166 3.44171 13.4166 3.58754V10.3396C13.4166 10.6118 13.3072 10.8184 13.0885 10.9594C12.8697 11.1004 12.6534 11.1028 12.4395 10.9667C12.1089 10.8306 11.7735 10.7212 11.4333 10.6386C11.093 10.5559 10.743 10.5146 10.3833 10.5146C9.77075 10.5146 9.18256 10.6167 8.61867 10.8209C8.05478 11.025 7.52492 11.307 7.02909 11.6667Z" fill="url(#paint0_linear_17_31)"/>
<defs>
<linearGradient id="paint0_linear_17_31" x1="6.99992" y1="2.33337" x2="6.99992" y2="11.6667" gradientUnits="userSpaceOnUse">
<stop stop-color="#43BBFF"/>
<stop offset="1" stop-color="#21AAF8"/>
</linearGradient>
</defs>
</svg>
