<svg width="14" height="14" viewBox="0 0 14 14" fill="none" xmlns="http://www.w3.org/2000/svg">
<path d="M6.927 12.8334L9.56658 5.83342H10.7624L13.4749 12.8334H12.2062L11.6083 10.9959H8.80825L8.12284 12.8334H6.927ZM9.12908 9.97508H11.1999L10.1791 7.14592H10.1499L9.12908 9.97508ZM2.33325 11.0834L1.53117 10.2813L4.50617 7.30633C4.13672 6.87855 3.8086 6.44835 3.52179 6.01571C3.23499 5.58307 2.98464 5.13341 2.77075 4.66675H4.0395C4.20478 4.98758 4.38707 5.2914 4.58638 5.57821C4.78568 5.86501 5.01172 6.15911 5.2645 6.4605C5.702 6.00355 6.06659 5.5296 6.35825 5.03862C6.64992 4.54765 6.89784 4.0348 7.102 3.50008H0.583252V2.33341H4.66658V1.16675H5.83325V2.33341H9.91658V3.50008H8.26867C8.05478 4.17091 7.7704 4.8296 7.41554 5.47612C7.06068 6.12265 6.62561 6.73758 6.11034 7.32092L7.5395 8.76467L7.102 9.94592L5.24992 8.16675L2.33325 11.0834Z" fill="url(#paint0_linear_17_18)"/>
<defs>
<linearGradient id="paint0_linear_17_18" x1="7.02909" y1="1.16675" x2="7.02909" y2="12.8334" gradientUnits="userSpaceOnUse">
<stop stop-color="#43BBFF"/>
<stop offset="1" stop-color="#21AAF8"/>
</linearGradient>
</defs>
</svg>
