<svg width="207" height="40" viewBox="0 0 207 40" fill="none" xmlns="http://www.w3.org/2000/svg">
<path d="M25.872 5.736L25.104 11.784H16.896V39H9.024V11.784H0.432V5.736H25.872ZM43.8259 12.696C46.0339 12.696 47.7619 13.368 49.0099 14.712C50.2579 16.056 50.8819 17.944 50.8819 20.376V39H43.2979V21.672C43.2979 20.392 43.0899 19.512 42.6739 19.032C42.2579 18.52 41.6659 18.264 40.8979 18.264C39.3619 18.264 37.8899 19.352 36.4819 21.528V39H28.8979V3.384L36.4819 2.616V16.248C37.5379 15.064 38.6579 14.184 39.8419 13.608C41.0259 13 42.3539 12.696 43.8259 12.696ZM76.857 31.608C76.857 32.568 76.985 33.272 77.241 33.72C77.529 34.168 77.977 34.504 78.585 34.728L77.001 39.672C75.433 39.544 74.153 39.208 73.161 38.664C72.169 38.088 71.401 37.192 70.857 35.976C69.193 38.536 66.633 39.816 63.177 39.816C60.649 39.816 58.633 39.08 57.129 37.608C55.625 36.136 54.873 34.216 54.873 31.848C54.873 29.064 55.897 26.936 57.945 25.464C59.993 23.992 62.953 23.256 66.825 23.256H69.417V22.152C69.417 20.648 69.097 19.624 68.457 19.08C67.817 18.504 66.697 18.216 65.097 18.216C64.265 18.216 63.257 18.344 62.073 18.6C60.889 18.824 59.673 19.144 58.425 19.56L56.697 14.568C58.297 13.96 59.929 13.496 61.593 13.176C63.289 12.856 64.857 12.696 66.297 12.696C69.945 12.696 72.617 13.448 74.313 14.952C76.009 16.456 76.857 18.712 76.857 21.72V31.608ZM65.385 34.392C67.113 34.392 68.457 33.576 69.417 31.944V27.432H67.545C65.817 27.432 64.521 27.736 63.657 28.344C62.825 28.952 62.409 29.896 62.409 31.176C62.409 32.2 62.665 33 63.177 33.576C63.721 34.12 64.457 34.392 65.385 34.392ZM89.1971 39.816C86.9891 39.816 85.2611 39.192 84.0131 37.944C82.7971 36.664 82.1891 34.856 82.1891 32.52V3.384L89.7731 2.568V32.232C89.7731 33.288 90.2051 33.816 91.0691 33.816C91.5171 33.816 91.9331 33.736 92.3171 33.576L93.8051 38.952C92.4291 39.528 90.8931 39.816 89.1971 39.816ZM104.263 13.512V39H96.6791V13.512H104.263ZM100.423 0.0719976C101.735 0.0719976 102.807 0.487998 103.639 1.32C104.503 2.12 104.935 3.144 104.935 4.392C104.935 5.64 104.503 6.68 103.639 7.512C102.807 8.312 101.735 8.712 100.423 8.712C99.1111 8.712 98.0391 8.312 97.2071 7.512C96.3751 6.68 95.9591 5.64 95.9591 4.392C95.9591 3.144 96.3751 2.12 97.2071 1.32C98.0391 0.487998 99.1111 0.0719976 100.423 0.0719976ZM119.202 12.696C121.026 12.696 122.738 12.968 124.338 13.512C125.938 14.056 127.346 14.824 128.562 15.816L125.778 20.088C123.698 18.776 121.602 18.12 119.49 18.12C118.498 18.12 117.73 18.296 117.186 18.648C116.674 18.968 116.418 19.432 116.418 20.04C116.418 20.52 116.53 20.92 116.754 21.24C117.01 21.528 117.506 21.832 118.242 22.152C118.978 22.472 120.114 22.856 121.65 23.304C124.306 24.072 126.274 25.08 127.554 26.328C128.866 27.544 129.522 29.24 129.522 31.416C129.522 33.144 129.026 34.648 128.034 35.928C127.042 37.176 125.682 38.136 123.954 38.808C122.226 39.48 120.306 39.816 118.194 39.816C116.05 39.816 114.05 39.48 112.194 38.808C110.37 38.136 108.818 37.208 107.538 36.024L111.234 31.896C113.378 33.56 115.634 34.392 118.002 34.392C119.154 34.392 120.05 34.184 120.69 33.768C121.362 33.352 121.698 32.76 121.698 31.992C121.698 31.384 121.57 30.904 121.314 30.552C121.058 30.2 120.562 29.88 119.826 29.592C119.09 29.272 117.922 28.888 116.322 28.44C113.794 27.704 111.906 26.68 110.658 25.368C109.41 24.056 108.786 22.424 108.786 20.472C108.786 19 109.202 17.688 110.034 16.536C110.898 15.352 112.114 14.424 113.682 13.752C115.282 13.048 117.122 12.696 119.202 12.696ZM142.077 12.696C143.901 12.696 145.613 12.968 147.213 13.512C148.813 14.056 150.221 14.824 151.437 15.816L148.653 20.088C146.573 18.776 144.477 18.12 142.365 18.12C141.373 18.12 140.605 18.296 140.061 18.648C139.549 18.968 139.293 19.432 139.293 20.04C139.293 20.52 139.405 20.92 139.629 21.24C139.885 21.528 140.381 21.832 141.117 22.152C141.853 22.472 142.989 22.856 144.525 23.304C147.181 24.072 149.149 25.08 150.429 26.328C151.741 27.544 152.397 29.24 152.397 31.416C152.397 33.144 151.901 34.648 150.909 35.928C149.917 37.176 148.557 38.136 146.829 38.808C145.101 39.48 143.181 39.816 141.069 39.816C138.925 39.816 136.925 39.48 135.069 38.808C133.245 38.136 131.693 37.208 130.413 36.024L134.109 31.896C136.253 33.56 138.509 34.392 140.877 34.392C142.029 34.392 142.925 34.184 143.565 33.768C144.237 33.352 144.573 32.76 144.573 31.992C144.573 31.384 144.445 30.904 144.189 30.552C143.933 30.2 143.437 29.88 142.701 29.592C141.965 29.272 140.797 28.888 139.197 28.44C136.669 27.704 134.781 26.68 133.533 25.368C132.285 24.056 131.661 22.424 131.661 20.472C131.661 19 132.077 17.688 132.909 16.536C133.773 15.352 134.989 14.424 136.557 13.752C138.157 13.048 139.997 12.696 142.077 12.696ZM167.344 12.696C171.248 12.696 174.304 13.896 176.512 16.296C178.72 18.664 179.824 21.992 179.824 26.28C179.824 29 179.312 31.384 178.288 33.432C177.296 35.448 175.856 37.016 173.968 38.136C172.112 39.256 169.904 39.816 167.344 39.816C163.472 39.816 160.416 38.632 158.176 36.264C155.968 33.864 154.864 30.52 154.864 26.232C154.864 23.512 155.36 21.144 156.352 19.128C157.376 17.08 158.816 15.496 160.672 14.376C162.56 13.256 164.784 12.696 167.344 12.696ZM167.344 18.264C165.808 18.264 164.656 18.92 163.888 20.232C163.12 21.512 162.736 23.512 162.736 26.232C162.736 29.016 163.104 31.048 163.84 32.328C164.608 33.608 165.776 34.248 167.344 34.248C168.88 34.248 170.032 33.608 170.8 32.328C171.568 31.016 171.952 29 171.952 26.28C171.952 23.496 171.568 21.464 170.8 20.184C170.064 18.904 168.912 18.264 167.344 18.264ZM199.263 12.696C201.471 12.696 203.199 13.368 204.447 14.712C205.695 16.056 206.319 17.944 206.319 20.376V39H198.735V21.672C198.735 20.392 198.527 19.512 198.111 19.032C197.727 18.52 197.135 18.264 196.335 18.264C194.799 18.264 193.327 19.368 191.919 21.576V39H184.335V13.512H190.959L191.487 16.536C192.575 15.256 193.743 14.296 194.991 13.656C196.271 13.016 197.695 12.696 199.263 12.696Z" fill="#141414"/>
</svg>
